<svg preserveAspectRatio="none" width="100%" height="100%" overflow="visible" style="display: block;" viewBox="0 0 64 64" fill="none" xmlns="http://www.w3.org/2000/svg">
<g id="SVG scanner_7801758 1" clip-path="url(#clip0_0_20)">
<path id="Vector" d="M31.953 -0.038588C32.0803 -0.0383186 32.2075 -0.0380492 32.3386 -0.0377716C34.1647 -0.0315628 35.9562 -0.000200689 37.7499 0.375475C37.8717 0.400309 37.9936 0.425144 38.1191 0.450731C44.1669 1.71581 49.6654 4.45537 54.1249 8.75047C54.2485 8.869 54.2485 8.869 54.3746 8.98992C55.5607 10.133 56.6532 11.2951 57.6249 12.6255C57.7321 12.7694 57.8394 12.9132 57.9467 13.0571C58.7014 14.081 59.3713 15.1452 59.9999 16.2505C60.0454 16.3295 60.091 16.4084 60.1379 16.4898C62.8387 21.2083 64.0595 26.5542 64.0389 31.9536C64.0387 32.0808 64.0384 32.2081 64.0381 32.3392C64.0319 34.1653 64.0006 35.9568 63.6249 37.7505C63.5876 37.9333 63.5876 37.9333 63.5496 38.1197C62.2846 44.1675 59.545 49.666 55.2499 54.1255C55.1709 54.2079 55.0919 54.2903 55.0104 54.3752C53.8674 55.5613 52.7052 56.6537 51.3749 57.6255C51.231 57.7327 51.0871 57.84 50.9432 57.9473C49.9195 58.7019 48.8567 59.3748 47.7499 60.0005C47.6615 60.0507 47.5731 60.101 47.482 60.1528C44.5901 61.781 41.4437 62.8746 38.1952 63.5395C38.1053 63.558 38.0155 63.5764 37.9229 63.5954C36.0884 63.944 34.2728 64.0441 32.409 64.0399C32.0415 64.0395 31.6742 64.0425 31.3068 64.0456C29.6351 64.0512 28.0231 63.9005 26.3749 63.6255C26.1617 63.5902 26.1617 63.5902 25.9442 63.5542C20.5358 62.5827 15.4045 60.0843 11.2499 56.5005C11.1568 56.4212 11.0636 56.3419 10.9677 56.2602C9.27954 54.7838 7.69562 53.19 6.37489 51.3755C6.26783 51.2317 6.16073 51.088 6.0536 50.9443C5.2986 49.9206 4.62568 48.8575 3.99989 47.7505C3.94962 47.6621 3.89934 47.5737 3.84754 47.4826C2.21937 44.5907 1.12576 41.4443 0.460826 38.1958C0.442407 38.1059 0.423987 38.0161 0.405009 37.9235C0.0332773 35.9677 -0.0467369 34.0335 -0.0391739 32.0473C-0.0389045 31.9201 -0.0386351 31.7929 -0.0383576 31.6618C-0.0321487 29.8356 -0.000786625 28.0441 0.374889 26.2505C0.399723 26.1286 0.424558 26.0068 0.450145 25.8812C1.71522 19.8335 4.45479 14.3349 8.74989 9.87547C8.8289 9.79306 8.90792 9.71064 8.98933 9.62572C10.1324 8.43969 11.2946 7.3472 12.6249 6.37547C12.7688 6.26822 12.9127 6.16096 13.0565 6.0537C14.0802 5.299 15.1431 4.62615 16.2499 4.00047C16.3383 3.9502 16.4267 3.89993 16.5178 3.84813C19.4097 2.21995 22.5561 1.12635 25.8046 0.461412C25.8944 0.442993 25.9843 0.424573 26.0769 0.405595C28.0327 0.0338632 29.9668 -0.0461509 31.953 -0.038588Z" fill="url(#paint0_linear_0_20)"/>
<path id="Vector_2" d="M22.0405 17.2929C22.1724 17.2846 22.3044 17.2763 22.4403 17.2678C22.5839 17.2607 22.7275 17.2536 22.8754 17.2463C23.0278 17.2376 23.1802 17.2289 23.3372 17.2199C24.7578 17.1436 26.1798 17.0989 27.602 17.0648C28.5542 17.0415 29.5037 17.0083 30.4544 16.948C37.2274 16.5272 37.2274 16.5272 39.5908 18.5786C40.8901 19.7384 42.0137 21.087 43.0435 22.4874C43.2493 22.76 43.2493 22.76 43.5223 23.0122C43.8325 23.3348 43.8107 23.5296 43.8069 23.9714C43.8069 24.1165 43.8068 24.2617 43.8068 24.4112C43.8042 24.5672 43.8016 24.7232 43.799 24.8839C43.7982 25.0441 43.7975 25.2043 43.7968 25.3694C43.7949 25.7944 43.79 26.2193 43.7845 26.6443C43.7793 27.0783 43.7771 27.5124 43.7745 27.9464C43.7692 28.7973 43.7607 29.6482 43.7501 30.4991C43.8693 30.4978 43.9885 30.4965 44.1114 30.4952C44.5537 30.4906 44.9961 30.4878 45.4385 30.4854C45.63 30.4841 45.8214 30.4824 46.0129 30.4803C46.2881 30.4772 46.5633 30.4758 46.8385 30.4747C46.9241 30.4734 47.0096 30.4721 47.0978 30.4708C47.554 30.4707 47.7341 30.4884 48.1251 30.7491C48.1697 31.005 48.1697 31.005 48.1661 31.316C48.1655 31.4275 48.1649 31.5389 48.1642 31.6537C48.1616 31.7703 48.159 31.8868 48.1564 32.0069C48.1557 32.124 48.1551 32.2411 48.1544 32.3617C48.1444 33.2299 48.1444 33.2299 48.0001 33.3741C47.685 33.3852 47.3733 33.3885 47.0582 33.3863C46.917 33.3861 46.917 33.3861 46.7729 33.3858C46.471 33.3851 46.1692 33.3835 45.8673 33.3819C45.6631 33.3813 45.4589 33.3808 45.2548 33.3802C44.7532 33.3789 44.2517 33.3767 43.7501 33.3741C43.7514 33.5999 43.7514 33.5999 43.7527 33.8302C43.7603 35.2483 43.7659 36.6664 43.7696 38.0845C43.7715 38.8135 43.7742 39.5426 43.7784 40.2716C43.7825 40.9751 43.7847 41.6786 43.7857 42.3821C43.7864 42.6506 43.7878 42.9191 43.7898 43.1876C43.7925 43.5634 43.7929 43.9393 43.7927 44.3151C43.794 44.4263 43.7954 44.5374 43.7968 44.6519C43.7938 45.2475 43.7619 45.6407 43.3751 46.1241C42.773 46.6528 42.4747 46.7648 41.6779 46.7675C41.5924 46.768 41.507 46.7685 41.419 46.7689C41.1313 46.7703 40.8436 46.7708 40.5559 46.7713C40.3502 46.772 40.1445 46.7729 39.9388 46.7738C39.3788 46.7759 38.8189 46.7772 38.259 46.7783C37.9092 46.7789 37.5595 46.7797 37.2098 46.7805C36.1159 46.7828 35.022 46.7846 33.9281 46.7857C32.6648 46.7869 31.4015 46.7902 30.1383 46.7952C29.1623 46.799 28.1862 46.8008 27.2102 46.8013C26.6271 46.8016 26.044 46.8027 25.4609 46.8058C24.9122 46.8087 24.3635 46.8093 23.8148 46.808C23.6136 46.8079 23.4123 46.8087 23.2111 46.8104C22.9359 46.8126 22.661 46.8117 22.3859 46.8101C22.232 46.8104 22.0782 46.8107 21.9197 46.811C21.3254 46.7234 20.9587 46.4352 20.5184 46.0424C20.2843 45.5632 20.3263 45.0822 20.3326 44.5564C20.3325 44.4356 20.3324 44.3148 20.3324 44.1904C20.3327 43.7913 20.3356 43.3923 20.3385 42.9933C20.3392 42.7165 20.3397 42.4398 20.3401 42.1631C20.3415 41.4348 20.3452 40.7065 20.3494 39.9782C20.3532 39.235 20.3549 38.4918 20.3568 37.7486C20.3608 36.2905 20.3672 34.8323 20.3751 33.3741C20.2433 33.3748 20.1114 33.3754 19.9755 33.3761C19.4879 33.3784 19.0004 33.3798 18.5128 33.381C18.3014 33.3816 18.0901 33.3825 17.8788 33.3836C17.5756 33.3851 17.2725 33.3858 16.9694 33.3863C16.8268 33.3873 16.8268 33.3873 16.6813 33.3883C16.4542 33.3883 16.2271 33.3819 16.0001 33.3741C15.7126 33.0866 15.852 32.3931 15.8517 32.0069C15.8494 31.8321 15.8494 31.8321 15.8471 31.6537C15.8468 31.5423 15.8466 31.4308 15.8463 31.316C15.8455 31.1621 15.8455 31.1621 15.8448 31.005C15.8751 30.7491 15.8751 30.7491 16.1251 30.4991C16.4388 30.4773 16.7384 30.4702 17.0519 30.4747C17.1431 30.4751 17.2343 30.4754 17.3283 30.4758C17.6199 30.4772 17.9116 30.4803 18.2033 30.4835C18.4008 30.4848 18.5984 30.4859 18.796 30.4869C19.2807 30.4897 19.7654 30.494 20.2501 30.4991C20.249 30.3505 20.2479 30.2018 20.2468 30.0486C20.2366 28.6471 20.2291 27.2457 20.2242 25.8442C20.2216 25.1237 20.2181 24.4032 20.2124 23.6827C20.207 22.9873 20.204 22.2919 20.2027 21.5965C20.2018 21.3312 20.2 21.066 20.1973 20.8008C20.1936 20.4291 20.1931 20.0575 20.1934 19.6858C20.1907 19.5216 20.1907 19.5216 20.1879 19.354C20.1925 18.677 20.2856 18.2767 20.7501 17.7491C21.1882 17.4417 21.5082 17.3238 22.0405 17.2929Z" fill="url(#paint1_linear_0_20)"/>
<path id="Vector_3" d="M21.4999 33.5C28.4712 33.5 35.4424 33.5 42.6249 33.5C42.6301 35.4542 42.6352 37.4084 42.6405 39.4219C42.6428 40.0396 42.6451 40.6572 42.6474 41.2936C42.6486 42.0463 42.6486 42.0463 42.6488 42.3983C42.6492 42.6449 42.65 42.8914 42.6513 43.138C42.6531 43.5108 42.6534 43.8837 42.6533 44.2565C42.6542 44.3669 42.6551 44.4772 42.656 44.5909C42.6534 45.3465 42.6534 45.3465 42.3749 45.625C42.0227 45.6565 42.0227 45.6565 41.5635 45.6567C41.4371 45.6573 41.4371 45.6573 41.3082 45.6579C41.0245 45.6589 40.7409 45.6581 40.4572 45.6574C40.2544 45.6577 40.0515 45.6581 39.8487 45.6587C39.2968 45.6598 38.7449 45.6594 38.193 45.6586C37.6164 45.658 37.0398 45.6585 36.4632 45.6589C35.4947 45.6594 34.5263 45.6588 33.5578 45.6576C32.437 45.6562 31.3161 45.6567 30.1952 45.6581C29.2342 45.6592 28.2731 45.6593 27.3121 45.6587C26.7375 45.6583 26.1629 45.6583 25.5884 45.6591C25.0483 45.6598 24.5082 45.6593 23.9681 45.6579C23.7695 45.6575 23.5709 45.6576 23.3722 45.6582C23.1019 45.6588 22.8316 45.658 22.5613 45.6567C22.4098 45.6567 22.2582 45.6566 22.1021 45.6565C21.7499 45.625 21.7499 45.625 21.4999 45.375C21.4764 44.9983 21.4685 44.6333 21.4715 44.2565C21.4715 44.1388 21.4715 44.0211 21.4714 43.8998C21.4716 43.5175 21.4735 43.1352 21.4755 42.7529C21.4759 42.5174 21.4761 42.2818 21.4763 42.0463C21.4776 41.1715 21.4811 40.2967 21.4843 39.4219C21.4894 37.4677 21.4946 35.5134 21.4999 33.5Z" fill="url(#paint2_linear_0_20)"/>
<path id="Vector_4" d="M22.0405 17.2929C22.1724 17.2846 22.3044 17.2763 22.4403 17.2678C22.5839 17.2607 22.7275 17.2536 22.8754 17.2463C23.0278 17.2376 23.1802 17.2289 23.3372 17.2199C24.7578 17.1436 26.1798 17.0989 27.602 17.0648C28.5542 17.0415 29.5037 17.0083 30.4544 16.948C37.2274 16.5272 37.2274 16.5272 39.5908 18.5786C40.8901 19.7384 42.0137 21.087 43.0435 22.4874C43.2493 22.76 43.2493 22.76 43.5223 23.0122C43.8325 23.3348 43.8107 23.5296 43.8069 23.9714C43.8069 24.1165 43.8068 24.2617 43.8068 24.4112C43.8042 24.5672 43.8016 24.7232 43.799 24.8839C43.7982 25.0441 43.7975 25.2043 43.7968 25.3694C43.7949 25.7944 43.79 26.2193 43.7845 26.6443C43.7793 27.0783 43.7771 27.5124 43.7745 27.9464C43.7692 28.7973 43.7607 29.6482 43.7501 30.4991C43.8693 30.4978 43.9885 30.4965 44.1114 30.4952C44.5537 30.4906 44.9961 30.4878 45.4385 30.4854C45.63 30.4841 45.8214 30.4824 46.0129 30.4803C46.2881 30.4772 46.5633 30.4758 46.8385 30.4747C46.9241 30.4734 47.0096 30.4721 47.0978 30.4708C47.554 30.4707 47.7341 30.4884 48.1251 30.7491C48.1697 31.005 48.1697 31.005 48.1661 31.316C48.1655 31.4275 48.1649 31.5389 48.1642 31.6537C48.1616 31.7703 48.159 31.8868 48.1564 32.0069C48.1557 32.124 48.1551 32.2411 48.1544 32.3617C48.1444 33.2299 48.1444 33.2299 48.0001 33.3741C47.685 33.3852 47.3733 33.3885 47.0582 33.3863C46.917 33.3861 46.917 33.3861 46.7729 33.3858C46.471 33.3851 46.1692 33.3835 45.8673 33.3819C45.6631 33.3813 45.4589 33.3808 45.2548 33.3802C44.7532 33.3789 44.2517 33.3767 43.7501 33.3741C43.7514 33.5999 43.7514 33.5999 43.7527 33.8302C43.7603 35.2483 43.7659 36.6664 43.7696 38.0845C43.7715 38.8135 43.7742 39.5426 43.7784 40.2716C43.7825 40.9751 43.7847 41.6786 43.7857 42.3821C43.7864 42.6506 43.7878 42.9191 43.7898 43.1876C43.7925 43.5634 43.7929 43.9393 43.7927 44.3151C43.794 44.4263 43.7954 44.5374 43.7968 44.6519C43.7938 45.2475 43.7619 45.6407 43.3751 46.1241C42.773 46.6528 42.4747 46.7648 41.6779 46.7675C41.5924 46.768 41.507 46.7685 41.419 46.7689C41.1313 46.7703 40.8436 46.7708 40.5559 46.7713C40.3502 46.772 40.1445 46.7729 39.9388 46.7738C39.3788 46.7759 38.8189 46.7772 38.259 46.7783C37.9092 46.7789 37.5595 46.7797 37.2098 46.7805C36.1159 46.7828 35.022 46.7846 33.9281 46.7857C32.6648 46.7869 31.4015 46.7902 30.1383 46.7952C29.1623 46.799 28.1862 46.8008 27.2102 46.8013C26.6271 46.8016 26.044 46.8027 25.4609 46.8058C24.9122 46.8087 24.3635 46.8093 23.8148 46.808C23.6136 46.8079 23.4123 46.8087 23.2111 46.8104C22.9359 46.8126 22.661 46.8117 22.3859 46.8101C22.232 46.8104 22.0782 46.8107 21.9197 46.811C21.3254 46.7234 20.9587 46.4352 20.5184 46.0424C20.2843 45.5632 20.3263 45.0822 20.3326 44.5564C20.3325 44.4356 20.3324 44.3148 20.3324 44.1904C20.3327 43.7913 20.3356 43.3923 20.3385 42.9933C20.3392 42.7165 20.3397 42.4398 20.3401 42.1631C20.3415 41.4348 20.3452 40.7065 20.3494 39.9782C20.3532 39.235 20.3549 38.4918 20.3568 37.7486C20.3608 36.2905 20.3672 34.8323 20.3751 33.3741C20.2433 33.3748 20.1114 33.3754 19.9755 33.3761C19.4879 33.3784 19.0004 33.3798 18.5128 33.381C18.3014 33.3816 18.0901 33.3825 17.8788 33.3836C17.5756 33.3851 17.2725 33.3858 16.9694 33.3863C16.8268 33.3873 16.8268 33.3873 16.6813 33.3883C16.4542 33.3883 16.2271 33.3819 16.0001 33.3741C15.7126 33.0866 15.852 32.3931 15.8517 32.0069C15.8494 31.8321 15.8494 31.8321 15.8471 31.6537C15.8468 31.5423 15.8466 31.4308 15.8463 31.316C15.8455 31.1621 15.8455 31.1621 15.8448 31.005C15.8751 30.7491 15.8751 30.7491 16.1251 30.4991C16.4388 30.4773 16.7384 30.4702 17.0519 30.4747C17.1431 30.4751 17.2343 30.4754 17.3283 30.4758C17.6199 30.4772 17.9116 30.4803 18.2033 30.4835C18.4008 30.4848 18.5984 30.4859 18.796 30.4869C19.2807 30.4897 19.7654 30.494 20.2501 30.4991C20.249 30.3505 20.2479 30.2018 20.2468 30.0486C20.2366 28.6471 20.2291 27.2457 20.2242 25.8442C20.2216 25.1237 20.2181 24.4032 20.2124 23.6827C20.207 22.9873 20.204 22.2919 20.2027 21.5965C20.2018 21.3312 20.2 21.066 20.1973 20.8008C20.1936 20.4291 20.1931 20.0575 20.1934 19.6858C20.1907 19.5216 20.1907 19.5216 20.1879 19.354C20.1925 18.677 20.2856 18.2767 20.7501 17.7491C21.1882 17.4417 21.5082 17.3238 22.0405 17.2929ZM21.3751 18.7491C21.3516 19.122 21.3437 19.4832 21.3467 19.8561C21.3467 19.9726 21.3467 20.0891 21.3467 20.2092C21.3468 20.5874 21.3487 20.9656 21.3507 21.3439C21.3511 21.5769 21.3513 21.81 21.3515 22.043C21.3528 22.9086 21.3563 23.7742 21.3595 24.6398C21.3647 26.5734 21.3698 28.5069 21.3751 30.4991C28.3876 30.4991 35.4001 30.4991 42.6251 30.4991C42.6251 28.3541 42.6251 26.2091 42.6251 23.9991C41.2191 23.9779 41.2191 23.9779 39.8131 23.9619C39.6355 23.9582 39.4579 23.9544 39.2804 23.9503C39.1898 23.9502 39.0991 23.95 39.0058 23.9499C38.3629 23.9319 37.9843 23.7975 37.5001 23.3741C37.1479 22.8015 37.0673 22.3079 37.0612 21.6485C37.0589 21.5581 37.0567 21.4676 37.0544 21.3743C37.0476 21.0878 37.0434 20.8013 37.0392 20.5148C37.035 20.3194 37.0307 20.1241 37.0262 19.9288C37.0157 19.4523 37.0073 18.9757 37.0001 18.4991C34.9998 18.4933 32.9995 18.4889 30.9991 18.4862C30.0704 18.4849 29.1416 18.4831 28.2129 18.4803C27.4036 18.4778 26.5943 18.4762 25.785 18.4756C25.3563 18.4753 24.9276 18.4745 24.4989 18.4727C24.0209 18.4707 23.5429 18.4706 23.0649 18.4708C22.8506 18.4694 22.8506 18.4694 22.6319 18.468C22.4374 18.4685 22.4374 18.4685 22.2389 18.4691C22.1257 18.4688 22.0126 18.4686 21.896 18.4684C21.5987 18.4737 21.5987 18.4737 21.3751 18.7491ZM21.5001 33.4991C21.495 35.4534 21.4898 37.4076 21.4845 39.421C21.4822 40.0387 21.48 40.6564 21.4776 41.2928C21.4768 41.8451 21.4768 41.8451 21.4763 42.3975C21.4759 42.644 21.475 42.8906 21.4737 43.1371C21.4719 43.51 21.4717 43.8828 21.4717 44.2557C21.4708 44.366 21.4699 44.4764 21.469 44.5901C21.4438 45.167 21.4438 45.167 21.7501 45.6241C22.1196 45.6624 22.1196 45.6624 22.5615 45.6559C22.6458 45.6563 22.73 45.6567 22.8168 45.6571C23.1005 45.6581 23.3842 45.6573 23.6679 45.6565C23.8707 45.6568 24.0735 45.6573 24.2763 45.6578C24.8282 45.659 25.3801 45.6585 25.932 45.6577C26.5086 45.6571 27.0852 45.6577 27.6619 45.6581C28.6303 45.6585 29.5988 45.6579 30.5672 45.6567C31.6881 45.6554 32.809 45.6558 33.9298 45.6572C34.8909 45.6583 35.8519 45.6585 36.813 45.6578C37.3875 45.6574 37.9621 45.6574 38.5367 45.6582C39.0767 45.6589 39.6168 45.6584 40.1569 45.657C40.3555 45.6567 40.5542 45.6568 40.7528 45.6573C41.0231 45.658 41.2934 45.6571 41.5637 45.6559C41.7153 45.6558 41.8668 45.6557 42.023 45.6556C42.3921 45.6606 42.3921 45.6606 42.6251 45.3741C42.6487 44.9975 42.6566 44.6324 42.6535 44.2557C42.6536 44.0791 42.6536 44.0791 42.6536 43.8989C42.6534 43.5166 42.6515 43.1343 42.6495 42.7521C42.6492 42.5165 42.6489 42.281 42.6488 42.0454C42.6475 41.1706 42.644 40.2958 42.6408 39.421C42.6356 37.4668 42.6304 35.5126 42.6251 33.4991C35.6539 33.4991 28.6826 33.4991 21.5001 33.4991Z" fill="var(--fill-0, #FAF7FA)"/>
<path id="Vector_5" d="M16.875 31.625C26.8575 31.625 36.84 31.625 47.125 31.625C47.125 31.8725 47.125 32.12 47.125 32.375C37.1425 32.375 27.16 32.375 16.875 32.375C16.875 32.1275 16.875 31.88 16.875 31.625Z" fill="url(#paint3_linear_0_20)"/>
<path id="Vector_6" d="M40.9583 12.7305C41.1097 12.7293 41.2611 12.7281 41.4172 12.7268C41.5821 12.7263 41.7471 12.7258 41.9171 12.7252C42.0869 12.7245 42.2568 12.7238 42.4267 12.7231C42.7834 12.7218 43.14 12.721 43.4967 12.7206C43.9539 12.7199 44.411 12.7169 44.8682 12.7133C45.2193 12.711 45.5704 12.7104 45.9215 12.7102C46.1721 12.7096 46.4227 12.7073 46.6732 12.7049C46.8255 12.7053 46.9777 12.7057 47.1345 12.7061C47.2688 12.7056 47.403 12.7052 47.5413 12.7047C47.8751 12.7506 47.8751 12.7506 48.1058 12.8963C48.3088 13.219 48.2977 13.4591 48.2986 13.8392C48.2998 13.9857 48.301 14.1321 48.3022 14.2829C48.3014 14.4411 48.3007 14.5993 48.2999 14.7623C48.3002 14.9246 48.3006 15.0869 48.301 15.2541C48.3015 15.5975 48.3007 15.9409 48.299 16.2843C48.2968 16.7244 48.2981 17.1644 48.3003 17.6045C48.302 18.0243 48.3008 18.4441 48.2999 18.8639C48.3006 19.0221 48.3014 19.1803 48.3022 19.3433C48.3004 19.5629 48.3004 19.5629 48.2986 19.787C48.2983 19.9161 48.298 20.0451 48.2977 20.1781C48.2501 20.5006 48.2501 20.5006 48.0796 20.7342C47.8751 20.8756 47.8751 20.8756 47.5548 20.8522C47.2501 20.7506 47.2501 20.7506 47.0001 20.5006C46.97 20.219 46.97 20.219 46.9717 19.8641C46.9717 19.7315 46.9717 19.5989 46.9718 19.4622C46.9737 19.2468 46.9737 19.2468 46.9757 19.027C46.976 18.8803 46.9764 18.7336 46.9767 18.5825C46.9781 18.1125 46.9813 17.6425 46.9845 17.1725C46.9857 16.8545 46.9868 16.5364 46.9879 16.2184C46.9906 15.4375 46.9948 14.6565 47.0001 13.8756C46.9179 13.8765 46.8357 13.8773 46.7511 13.8781C45.8975 13.8864 45.0438 13.8921 44.1902 13.8962C43.8714 13.8981 43.5526 13.9007 43.2339 13.9039C42.7762 13.9085 42.3186 13.9106 41.8609 13.9122C41.7179 13.9142 41.575 13.9161 41.4276 13.9181C41.2287 13.9182 41.2287 13.9182 41.0258 13.9182C40.9089 13.919 40.7921 13.9199 40.6717 13.9207C40.3751 13.8756 40.3751 13.8756 40.145 13.706C40.0001 13.5006 40.0001 13.5006 40.0313 13.1725C40.2016 12.6334 40.4238 12.7339 40.9583 12.7305Z" fill="var(--fill-0, #FBF2F5)"/>
<path id="Vector_7" d="M16.852 12.7039C17.0013 12.7031 17.1506 12.7024 17.3044 12.7016C17.4658 12.7027 17.6271 12.7039 17.7933 12.7051C17.9603 12.7051 18.1274 12.7051 18.2944 12.7049C18.6442 12.7049 18.994 12.7062 19.3438 12.7084C19.7926 12.7113 20.2413 12.7113 20.6901 12.7105C21.0349 12.7101 21.3796 12.7109 21.7244 12.7121C21.9705 12.7129 22.2166 12.7127 22.4627 12.7125C22.6861 12.7143 22.6861 12.7143 22.914 12.7161C23.0455 12.7167 23.1771 12.7173 23.3126 12.7179C23.6249 12.7505 23.6249 12.7505 23.8749 13.0005C23.8983 13.3833 23.8983 13.3833 23.8749 13.7505C23.7499 13.8755 23.7499 13.8755 23.4738 13.8905C23.352 13.8902 23.2301 13.8899 23.1046 13.8897C22.9669 13.8896 22.8293 13.8896 22.6875 13.8896C22.5378 13.889 22.388 13.8883 22.2338 13.8877C22.0813 13.8875 21.9289 13.8873 21.7719 13.8871C21.2828 13.8864 20.7937 13.8849 20.3046 13.8833C19.9739 13.8826 19.6433 13.8821 19.3126 13.8816C18.5 13.8802 17.6875 13.8781 16.8749 13.8755C16.8754 13.9595 16.876 14.0435 16.8766 14.13C16.8821 15.0019 16.8859 15.8738 16.8886 16.7456C16.8899 17.0713 16.8916 17.397 16.8937 17.7227C16.8968 18.19 16.8982 18.6572 16.8993 19.1245C16.9006 19.2708 16.9019 19.4172 16.9032 19.568C16.9032 19.7031 16.9032 19.8382 16.9033 19.9775C16.9038 20.0968 16.9044 20.2162 16.9049 20.3391C16.8749 20.6255 16.8749 20.6255 16.6249 20.8755C16.2127 20.8342 16.047 20.7976 15.7499 20.5005C15.7173 20.1929 15.7173 20.1929 15.7155 19.801C15.7144 19.6546 15.7132 19.5082 15.7119 19.3573C15.712 19.1985 15.7122 19.0396 15.7123 18.8759C15.7117 18.7135 15.7112 18.551 15.7107 18.3837C15.7097 18.0395 15.7098 17.6954 15.7104 17.3513C15.7111 16.9102 15.709 16.4691 15.7061 16.028C15.7038 15.6076 15.7043 15.1871 15.7045 14.7666C15.7033 14.608 15.7022 14.4494 15.701 14.286C15.7018 14.1392 15.7025 13.9923 15.7033 13.8411C15.7033 13.7116 15.7032 13.5822 15.7031 13.4489C15.7499 13.1255 15.7499 13.1255 15.8948 12.8961C16.2215 12.6893 16.4667 12.7037 16.852 12.7039Z" fill="var(--fill-0, #FBF5F7)"/>
<path id="Vector_8" d="M47.25 43.25C47.6328 43.2188 47.6328 43.2188 48 43.25C48.125 43.375 48.125 43.375 48.14 43.6843C48.1398 43.8217 48.1395 43.9591 48.1392 44.1006C48.1392 44.3333 48.1392 44.3333 48.1392 44.5708C48.1385 44.7414 48.1379 44.9119 48.1372 45.0825C48.137 45.2561 48.1368 45.4297 48.1367 45.6033C48.1362 46.0609 48.135 46.5185 48.1336 46.9762C48.1323 47.4429 48.1317 47.9095 48.1311 48.3762C48.1298 49.2925 48.1276 50.2087 48.125 51.125C47.7879 51.2935 47.5261 51.2659 47.1487 51.2662C46.9964 51.2666 46.8442 51.267 46.6873 51.2674C46.5206 51.2671 46.3538 51.2669 46.187 51.2666C46.0167 51.2667 45.8464 51.2668 45.6761 51.267C45.3192 51.2671 44.9622 51.2669 44.6053 51.2663C44.1468 51.2656 43.6883 51.266 43.2298 51.2667C42.8782 51.2672 42.5266 51.2671 42.175 51.2667C42.0059 51.2666 41.8368 51.2667 41.6677 51.267C41.4319 51.2674 41.196 51.2668 40.9602 51.2662C40.7585 51.266 40.7585 51.266 40.5528 51.2659C40.25 51.25 40.25 51.25 40.125 51.125C40.1016 50.7578 40.1016 50.7578 40.125 50.375C40.375 50.125 40.375 50.125 40.6566 50.0949C40.8323 50.0958 40.8323 50.0958 41.0115 50.0966C41.1442 50.0966 41.2768 50.0967 41.4134 50.0967C41.557 50.098 41.7007 50.0993 41.8486 50.1006C41.9953 50.1009 42.142 50.1013 42.2932 50.1017C42.7632 50.1031 43.2331 50.1062 43.7031 50.1094C44.0212 50.1106 44.3392 50.1118 44.6572 50.1128C45.4382 50.1156 46.2191 50.1197 47 50.125C46.9994 50.0444 46.9989 49.9638 46.9983 49.8808C46.9928 49.0433 46.989 48.2059 46.9863 47.3685C46.985 47.0558 46.9833 46.7431 46.9811 46.4304C46.9781 45.9814 46.9767 45.5325 46.9756 45.0835C46.9743 44.9433 46.973 44.803 46.9717 44.6585C46.9716 44.4634 46.9716 44.4634 46.9716 44.2643C46.9711 44.1496 46.9705 44.035 46.9699 43.9169C47 43.625 47 43.625 47.25 43.25Z" fill="var(--fill-0, #F8F9FB)"/>
<path id="Vector_9" d="M15.9999 43.25C16.3827 43.2188 16.3827 43.2188 16.7499 43.25C16.8749 43.375 16.8749 43.375 16.8899 43.651C16.8895 43.8338 16.8895 43.8338 16.8891 44.0203C16.8891 44.1579 16.889 44.2956 16.889 44.4374C16.8884 44.5871 16.8877 44.7368 16.8871 44.8911C16.8869 45.0435 16.8867 45.196 16.8865 45.353C16.8858 45.8421 16.8843 46.3312 16.8827 46.8203C16.8821 47.151 16.8815 47.4816 16.881 47.8123C16.8796 48.6248 16.8775 49.4374 16.8749 50.25C16.9607 50.2497 17.0466 50.2494 17.135 50.2492C18.0251 50.2464 18.9152 50.2445 19.8053 50.2431C20.1379 50.2425 20.4705 50.2416 20.8031 50.2406C21.28 50.2391 21.7569 50.2383 22.2338 50.2378C22.4584 50.2368 22.4584 50.2368 22.6875 50.2358C22.894 50.2358 22.894 50.2358 23.1046 50.2358C23.2874 50.2354 23.2874 50.2354 23.4738 50.235C23.7499 50.25 23.7499 50.25 23.8749 50.375C23.8905 50.75 23.8905 50.75 23.8749 51.125C23.6545 51.3454 23.3405 51.2671 23.0417 51.2682C22.8902 51.269 22.7388 51.2698 22.5828 51.2706C22.4178 51.2707 22.2528 51.2709 22.0829 51.271C21.913 51.2714 21.7431 51.2718 21.5733 51.2723C21.2166 51.273 20.8599 51.2732 20.5033 51.2732C20.0461 51.2732 19.5889 51.2749 19.1317 51.277C18.7806 51.2784 18.4296 51.2787 18.0785 51.2786C17.8279 51.2788 17.5773 51.2802 17.3267 51.2815C17.1745 51.2811 17.0223 51.2808 16.8654 51.2804C16.7312 51.2805 16.5969 51.2807 16.4586 51.2809C16.1249 51.25 16.1249 51.25 15.7499 51C15.7031 50.6925 15.7031 50.6925 15.7033 50.3006C15.7022 50.0809 15.7022 50.0809 15.701 49.8569C15.7021 49.698 15.7033 49.5392 15.7045 49.3755C15.7044 49.213 15.7043 49.0506 15.7043 48.8832C15.7043 48.5391 15.7056 48.1949 15.7079 47.8508C15.7107 47.4097 15.7108 46.9687 15.7099 46.5276C15.7094 46.1071 15.7109 45.6866 15.7123 45.2661C15.7122 45.1075 15.712 44.9489 15.7119 44.7855C15.7131 44.6387 15.7143 44.4919 15.7155 44.3406C15.7164 44.1465 15.7164 44.1465 15.7173 43.9484C15.7499 43.625 15.7499 43.625 15.9999 43.25Z" fill="var(--fill-0, #F9F9FB)"/>
<path id="Vector_10" d="M24.4464 42.2322C24.5463 42.2325 24.6462 42.2327 24.7491 42.233C24.9061 42.2327 24.9061 42.2327 25.0662 42.2323C25.414 42.2318 25.7617 42.2322 26.1094 42.2326C26.3499 42.2325 26.5905 42.2324 26.831 42.2322C27.3358 42.232 27.8407 42.2323 28.3455 42.2329C28.9941 42.2336 29.6427 42.2332 30.2914 42.2324C30.7883 42.232 31.2852 42.2321 31.7821 42.2325C32.0213 42.2325 32.2605 42.2324 32.4998 42.2321C32.8335 42.2318 33.1673 42.2323 33.501 42.233C33.6009 42.2328 33.7008 42.2325 33.8037 42.2322C34.4857 42.2349 34.4857 42.2349 34.625 42.3742C34.586 42.8117 34.586 42.8117 34.5 43.2492C34.112 43.4432 33.7011 43.3937 33.2752 43.3943C33.1746 43.3949 33.074 43.3956 32.9703 43.3962C32.6366 43.398 32.3029 43.3989 31.9693 43.3996C31.7379 43.4003 31.5066 43.401 31.2752 43.4017C30.7898 43.403 30.3045 43.4038 29.8191 43.4042C29.1964 43.4049 28.5737 43.4079 27.9511 43.4115C27.4731 43.4138 26.9952 43.4144 26.5173 43.4146C26.2877 43.415 26.058 43.416 25.8284 43.4176C25.5076 43.4198 25.1869 43.4195 24.866 43.4187C24.7708 43.4199 24.6755 43.421 24.5773 43.4222C23.9386 43.4171 23.9386 43.4171 23.6236 43.2044C23.5 42.9992 23.5 42.9992 23.5313 42.6711C23.6999 42.1372 23.9206 42.2343 24.4464 42.2322Z" fill="var(--fill-0, #F6F5F9)"/>
<path id="Vector_11" d="M24.5696 34.966C24.6665 34.9665 24.7634 34.967 24.8632 34.9675C24.9653 34.9671 25.0673 34.9667 25.1725 34.9662C25.5108 34.9651 25.8491 34.9659 26.1874 34.9667C26.4219 34.9665 26.6563 34.9663 26.8908 34.966C27.3826 34.9656 27.8744 34.9661 28.3661 34.9673C28.9975 34.9687 29.6289 34.9679 30.2603 34.9664C30.7445 34.9655 31.2288 34.9658 31.713 34.9664C31.9459 34.9666 32.1787 34.9664 32.4116 34.9658C32.7366 34.9652 33.0616 34.9662 33.3867 34.9675C33.4835 34.967 33.5804 34.9665 33.6803 34.966C34.3464 34.9713 34.3464 34.9713 34.6249 35.2499C34.6562 35.5624 34.6562 35.5624 34.6249 35.8749C34.3077 36.1922 34.1052 36.1559 33.6723 36.1602C33.5743 36.1599 33.4762 36.1595 33.3752 36.1592C33.2719 36.1599 33.1686 36.1605 33.0623 36.1612C32.7199 36.1629 32.3775 36.1628 32.0351 36.1625C31.7978 36.163 31.5606 36.1635 31.3233 36.1641C30.8256 36.1651 30.328 36.165 29.8303 36.1644C29.1914 36.1636 28.5524 36.1658 27.9135 36.1687C27.4234 36.1705 26.9334 36.1706 26.4434 36.1702C26.2077 36.1703 25.9721 36.1709 25.7364 36.1722C25.4075 36.1737 25.0786 36.1729 24.7497 36.1714C24.6516 36.1724 24.5536 36.1733 24.4525 36.1743C24.1817 36.1717 24.1817 36.1717 23.7499 36.1249C23.4999 35.7499 23.4999 35.7499 23.5312 35.4921C23.7416 34.9486 24.0359 34.9703 24.5696 34.966Z" fill="var(--fill-0, #FCFAFB)"/>
<path id="Vector_12" d="M24.5696 27.841C24.6665 27.8415 24.7634 27.842 24.8632 27.8425C24.9653 27.8421 25.0673 27.8417 25.1725 27.8412C25.5108 27.8401 25.8491 27.8409 26.1875 27.8417C26.4219 27.8415 26.6564 27.8413 26.8908 27.841C27.3826 27.8406 27.8744 27.8411 28.3662 27.8423C28.9976 27.8437 29.6289 27.8429 30.2603 27.8414C30.7445 27.8405 31.2288 27.8408 31.7131 27.8414C31.9459 27.8416 32.1788 27.8414 32.4116 27.8408C32.7366 27.8402 33.0616 27.8412 33.3867 27.8425C33.4836 27.842 33.5805 27.8415 33.6803 27.841C34.3464 27.8463 34.3464 27.8463 34.625 28.1249C34.6562 28.4374 34.6562 28.4374 34.625 28.7499C34.3094 29.0654 34.1122 29.0308 33.6817 29.0352C33.585 29.0349 33.4883 29.0345 33.3887 29.0342C33.2868 29.0349 33.185 29.0355 33.08 29.0362C32.7423 29.0379 32.4046 29.0378 32.0669 29.0375C31.8327 29.038 31.5985 29.0385 31.3644 29.0391C30.8731 29.0401 30.3819 29.04 29.8906 29.0394C29.2604 29.0386 28.6301 29.0407 27.9999 29.0437C27.5162 29.0455 27.0324 29.0456 26.5487 29.0452C26.3163 29.0453 26.0839 29.0459 25.8515 29.0472C25.5268 29.0487 25.2022 29.0479 24.8774 29.0464C24.7328 29.0479 24.7328 29.0479 24.5852 29.0493C23.9371 29.0429 23.9371 29.0429 23.6233 28.8256C23.5 28.6249 23.5 28.6249 23.5234 28.3671C23.749 27.8292 24.0302 27.8453 24.5696 27.841Z" fill="var(--fill-0, #FDFBFC)"/>
<path id="Vector_13" d="M24.4371 24.3564C24.5356 24.3564 24.6341 24.3565 24.7356 24.3565C24.8388 24.3561 24.9421 24.3557 25.0485 24.3553C25.3915 24.3541 25.7346 24.3538 26.0777 24.3537C26.3151 24.3533 26.5525 24.3529 26.79 24.3524C27.2884 24.3517 27.7868 24.3514 28.2852 24.3515C28.9251 24.3515 29.5651 24.3498 30.205 24.3477C30.6956 24.3463 31.1862 24.346 31.6767 24.3461C31.9127 24.3459 32.1487 24.3454 32.3847 24.3444C32.7142 24.3432 33.0437 24.3436 33.3733 24.3443C33.4715 24.3436 33.5698 24.3429 33.671 24.3422C34.3465 24.3461 34.3465 24.3461 34.625 24.6247C34.6641 24.9372 34.6641 24.9372 34.625 25.2497C34.1595 25.56 33.7998 25.5358 33.261 25.534C33.1604 25.5347 33.0597 25.5353 32.956 25.5359C32.623 25.5377 32.2901 25.5376 31.9571 25.5373C31.7259 25.5378 31.4947 25.5383 31.2635 25.5389C30.7789 25.5398 30.2943 25.5398 29.8097 25.5391C29.1879 25.5384 28.5663 25.5405 27.9446 25.5434C27.4672 25.5453 26.9898 25.5454 26.5124 25.545C26.2831 25.5451 26.0539 25.5457 25.8246 25.547C25.5044 25.5485 25.1843 25.5477 24.864 25.5462C24.769 25.5472 24.6739 25.5481 24.5759 25.5491C23.9387 25.5427 23.9387 25.5427 23.6238 25.3298C23.5 25.1247 23.5 25.1247 23.5313 24.7966C23.6988 24.266 23.9138 24.3595 24.4371 24.3564Z" fill="var(--fill-0, #FAF3F7)"/>
<path id="Vector_14" d="M24.5696 38.591C24.6665 38.5915 24.7634 38.592 24.8632 38.5925C24.9653 38.5921 25.0673 38.5917 25.1725 38.5912C25.5108 38.5901 25.8491 38.5909 26.1875 38.5917C26.4219 38.5915 26.6564 38.5913 26.8908 38.591C27.3826 38.5906 27.8744 38.5911 28.3662 38.5923C28.9976 38.5937 29.6289 38.5929 30.2603 38.5914C30.7445 38.5905 31.2288 38.5908 31.7131 38.5914C31.9459 38.5916 32.1788 38.5914 32.4116 38.5908C32.7366 38.5902 33.0616 38.5912 33.3867 38.5925C33.4836 38.592 33.5805 38.5915 33.6803 38.591C34.3464 38.5963 34.3464 38.5963 34.625 38.8749C34.6562 39.1874 34.6562 39.1874 34.625 39.4999C34.3094 39.8154 34.1122 39.7808 33.6817 39.7852C33.585 39.7849 33.4883 39.7845 33.3887 39.7842C33.2868 39.7849 33.185 39.7855 33.08 39.7862C32.7423 39.7879 32.4046 39.7878 32.0669 39.7875C31.8327 39.788 31.5985 39.7885 31.3644 39.7891C30.8731 39.7901 30.3819 39.79 29.8906 39.7894C29.2604 39.7886 28.6301 39.7907 27.9999 39.7937C27.5162 39.7955 27.0324 39.7956 26.5487 39.7952C26.3163 39.7953 26.0839 39.7959 25.8515 39.7972C25.5268 39.7987 25.2022 39.7979 24.8774 39.7964C24.7328 39.7979 24.7328 39.7979 24.5852 39.7993C23.9371 39.7929 23.9371 39.7929 23.6233 39.5756C23.5 39.3749 23.5 39.3749 23.5234 39.1171C23.749 38.5792 24.0302 38.5953 24.5696 38.591Z" fill="var(--fill-0, #FDFDFD)"/>
<path id="Vector_15" d="M24.5696 20.716C24.6665 20.7165 24.7634 20.717 24.8632 20.7175C24.9653 20.7171 25.0673 20.7167 25.1725 20.7162C25.5108 20.7151 25.8491 20.7159 26.1875 20.7167C26.4219 20.7165 26.6564 20.7163 26.8908 20.716C27.3826 20.7156 27.8744 20.7161 28.3662 20.7173C28.9976 20.7187 29.6289 20.7179 30.2603 20.7164C30.7445 20.7155 31.2288 20.7158 31.7131 20.7164C31.9459 20.7166 32.1788 20.7164 32.4116 20.7158C32.7366 20.7152 33.0616 20.7162 33.3867 20.7175C33.4836 20.717 33.5805 20.7165 33.6803 20.716C34.3464 20.7213 34.3464 20.7213 34.625 20.9999C34.6562 21.3124 34.6562 21.3124 34.625 21.6249C34.3094 21.9404 34.1122 21.9058 33.6817 21.9102C33.585 21.9099 33.4883 21.9095 33.3887 21.9092C33.2868 21.9099 33.185 21.9105 33.08 21.9112C32.7423 21.9129 32.4046 21.9128 32.0669 21.9125C31.8327 21.913 31.5985 21.9135 31.3644 21.9141C30.8731 21.9151 30.3819 21.915 29.8906 21.9144C29.2604 21.9136 28.6301 21.9157 27.9999 21.9187C27.5162 21.9205 27.0324 21.9206 26.5487 21.9202C26.3163 21.9203 26.0839 21.9209 25.8515 21.9222C25.5268 21.9237 25.2022 21.9229 24.8774 21.9214C24.7328 21.9229 24.7328 21.9229 24.5852 21.9243C23.9371 21.9179 23.9371 21.9179 23.6233 21.7006C23.5 21.4999 23.5 21.4999 23.5234 21.2421C23.749 20.7042 24.0302 20.7203 24.5696 20.716Z" fill="var(--fill-0, #FBF6F8)"/>
<path id="Vector_16" d="M38.1249 19.25C38.8731 19.8659 39.5578 20.5387 40.2408 21.2246C40.4318 21.4163 40.6234 21.6072 40.8151 21.7981C40.9365 21.9196 41.0578 22.0411 41.1791 22.1626C41.2888 22.2724 41.3984 22.3822 41.5114 22.4953C41.7499 22.75 41.7499 22.75 41.7499 22.875C41.2161 22.8859 40.6823 22.8925 40.1484 22.8984C39.9205 22.9032 39.9205 22.9032 39.6881 22.908C39.47 22.9098 39.47 22.9098 39.2475 22.9116C39.1133 22.9136 38.9791 22.9155 38.8408 22.9176C38.4999 22.875 38.4999 22.875 38.268 22.7319C38.0623 22.3984 38.0826 22.1422 38.0883 21.7524C38.0895 21.607 38.0907 21.4616 38.092 21.3118C38.0967 21.084 38.0967 21.084 38.1015 20.8516C38.1032 20.6982 38.1049 20.5449 38.1066 20.387C38.111 20.0079 38.1172 19.629 38.1249 19.25Z" fill="url(#paint4_linear_0_20)"/>
<path id="Vector_17" d="M37.5374 38.6017C37.6223 38.6017 37.7071 38.6017 37.7945 38.6017C38.0532 38.6014 38.3119 38.5992 38.5706 38.5968C38.8139 38.5964 38.8139 38.5964 39.0621 38.5961C39.2118 38.5956 39.3616 38.595 39.5159 38.5945C39.8751 38.6249 39.8751 38.6249 40.1251 38.8749C40.1563 39.1874 40.1563 39.1874 40.1251 39.4999C39.7044 39.9206 39.1482 39.787 38.5767 39.7902C38.4924 39.7899 38.408 39.7896 38.3212 39.7893C38.0635 39.7889 37.806 39.7919 37.5484 39.795C37.3868 39.7951 37.2252 39.7952 37.0586 39.7953C36.9097 39.7957 36.7607 39.796 36.6072 39.7964C36.4894 39.7811 36.3715 39.7657 36.2501 39.7499C36.0001 39.3749 36.0001 39.3749 36.0391 39.0467C36.2355 38.3683 36.9312 38.6044 37.5374 38.6017Z" fill="var(--fill-0, #FCFBFC)"/>
<path id="Vector_18" d="M37.5374 27.8517C37.6223 27.8517 37.7071 27.8517 37.7945 27.8517C38.0532 27.8514 38.3119 27.8492 38.5706 27.8468C38.8139 27.8464 38.8139 27.8464 39.0621 27.8461C39.2118 27.8455 39.3616 27.845 39.5159 27.8445C39.8751 27.8749 39.8751 27.8749 40.1251 28.1249C40.1563 28.4374 40.1563 28.4374 40.1251 28.7499C39.7044 29.1706 39.1482 29.037 38.5767 29.0402C38.4924 29.0399 38.408 29.0396 38.3212 29.0393C38.0635 29.0389 37.806 29.0419 37.5484 29.045C37.3868 29.0451 37.2252 29.0452 37.0586 29.0453C36.9097 29.0457 36.7607 29.046 36.6072 29.0464C36.4894 29.0311 36.3715 29.0157 36.2501 28.9999C36.0001 28.6249 36.0001 28.6249 36.0391 28.2967C36.2355 27.6183 36.9312 27.8544 37.5374 27.8517Z" fill="var(--fill-0, #FCF9FB)"/>
<path id="Vector_19" d="M38.0547 34.9769C38.2114 34.9754 38.3681 34.9739 38.5295 34.9723C38.7544 34.9719 38.7544 34.9719 38.9839 34.9716C39.1217 34.971 39.2596 34.9705 39.4016 34.97C39.75 35.0004 39.75 35.0004 40.125 35.2504C40.1641 35.5629 40.1641 35.5629 40.125 35.8754C39.7755 36.2249 39.5551 36.1576 39.0664 36.1586C38.9048 36.1589 38.7432 36.1592 38.5767 36.1595C38.4923 36.159 38.408 36.1585 38.3211 36.158C38.0635 36.1566 37.806 36.1579 37.5483 36.1595C37.3867 36.1592 37.2251 36.1589 37.0586 36.1586C36.9096 36.1583 36.7607 36.158 36.6072 36.1577C36.25 36.1254 36.25 36.1254 36 35.8754C36.0312 35.4925 36.0312 35.4925 36.125 35.1254C36.6811 34.8473 37.444 34.9772 38.0547 34.9769Z" fill="var(--fill-0, #FBF9FB)"/>
<path id="Vector_20" d="M37.5373 42.2272C37.6221 42.2272 37.707 42.2272 37.7944 42.2272C38.0531 42.2269 38.3118 42.2247 38.5705 42.2223C38.8138 42.2219 38.8138 42.2219 39.0619 42.2215C39.2117 42.221 39.3615 42.2205 39.5158 42.22C39.8749 42.2504 39.8749 42.2504 40.1249 42.5004C40.0937 42.8832 40.0937 42.8832 39.9999 43.2504C39.4427 43.529 38.6821 43.4041 38.0702 43.4066C37.9135 43.4092 37.7568 43.4118 37.5954 43.4144C37.3705 43.4154 37.3705 43.4154 37.141 43.4164C36.9343 43.4181 36.9343 43.4181 36.7233 43.4199C36.3749 43.3754 36.3749 43.3754 36.1376 43.2058C35.9999 43.0004 35.9999 43.0004 36.0312 42.6722C36.2443 41.9973 36.9239 42.2299 37.5373 42.2272Z" fill="var(--fill-0, #F7F5F9)"/>
</g>
<defs>
<linearGradient id="paint0_linear_0_20" x1="31.9998" y1="-0.0390625" x2="31.9998" y2="64.0458" gradientUnits="userSpaceOnUse">
<stop stop-color="#BE6D32"/>
<stop offset="0.591346" stop-color="#DF9158"/>
<stop offset="0.740385" stop-color="#CF7F45"/>
<stop offset="0.995192" stop-color="#F8BA8D"/>
</linearGradient>
<linearGradient id="paint1_linear_0_20" x1="31.9928" y1="16.7266" x2="31.9928" y2="46.8117" gradientUnits="userSpaceOnUse">
<stop stop-color="#BE6D32"/>
<stop offset="0.591346" stop-color="#DF9158"/>
<stop offset="0.740385" stop-color="#CF7F45"/>
<stop offset="0.995192" stop-color="#F8BA8D"/>
</linearGradient>
<linearGradient id="paint2_linear_0_20" x1="32.0635" y1="33.5" x2="32.0635" y2="45.6594" gradientUnits="userSpaceOnUse">
<stop stop-color="#BE6D32"/>
<stop offset="0.591346" stop-color="#DF9158"/>
<stop offset="0.740385" stop-color="#CF7F45"/>
<stop offset="0.995192" stop-color="#F8BA8D"/>
</linearGradient>
<linearGradient id="paint3_linear_0_20" x1="32" y1="31.625" x2="32" y2="32.375" gradientUnits="userSpaceOnUse">
<stop stop-color="#BE6D32"/>
<stop offset="0.591346" stop-color="#DF9158"/>
<stop offset="0.740385" stop-color="#CF7F45"/>
<stop offset="0.995192" stop-color="#F8BA8D"/>
</linearGradient>
<linearGradient id="paint4_linear_0_20" x1="39.9174" y1="19.25" x2="39.9174" y2="22.9176" gradientUnits="userSpaceOnUse">
<stop stop-color="#BE6D32"/>
<stop offset="0.591346" stop-color="#DF9158"/>
<stop offset="0.740385" stop-color="#CF7F45"/>
<stop offset="0.995192" stop-color="#F8BA8D"/>
</linearGradient>
<clipPath id="clip0_0_20">
<rect width="64" height="64" fill="white"/>
</clipPath>
</defs>
</svg>
